HIERARCHY
ROOT Hips
{
  OFFSET -1.83323 97.8437 -19.541
  CHANNELS 6 Xposition Yposition Zposition Zrotation Xrotation Yrotation
  JOINT LeftUpLeg
  {
    OFFSET 8.64259 1.95398 -2.38835
    CHANNELS 6 Xposition Yposition Zposition Zrotation Xrotation Yrotation
    JOINT LeftLeg
    {
      OFFSET 43.7702 0 0
      CHANNELS 6 Xposition Yposition Zposition Zrotation Xrotation Yrotation
      JOINT LeftFoot
      {
        OFFSET 40.6238 0 0
        CHANNELS 6 Xposition Yposition Zposition Zrotation Xrotation Yrotation
        JOINT LeftToeBase
        {
          OFFSET 12.7242 0 0
          CHANNELS 6 Xposition Yposition Zposition Zrotation Xrotation Yrotation
          End Site
          {
            OFFSET 0 0 0
          }
        }
      }
    }
  }
  JOINT RightUpLeg
  {
    OFFSET -8.2249 1.95398 -2.59336
    CHANNELS 6 Xposition Yposition Zposition Zrotation Xrotation Yrotation
    JOINT RightLeg
    {
      OFFSET 43.5653 0 0
      CHANNELS 6 Xposition Yposition Zposition Zrotation Xrotation Yrotation
      JOINT RightFoot
      {
        OFFSET 40.6238 0 0
        CHANNELS 6 Xposition Yposition Zposition Zrotation Xrotation Yrotation
        JOINT RightToeBase
        {
          OFFSET 12.7242 0 0
          CHANNELS 6 Xposition Yposition Zposition Zrotation Xrotation Yrotation
          End Site
          {
            OFFSET 0 0 0
          }
        }
      }
    }
  }
  JOINT Spine
  {
    OFFSET 0.165834 0.87714 6.61349
    CHANNELS 6 Xposition Yposition Zposition Zrotation Xrotation Yrotation
    JOINT Spine1
    {
      OFFSET 7.38963 1.71661e-005 0
      CHANNELS 6 Xposition Yposition Zposition Zrotation Xrotation Yrotation
      JOINT Spine2
      {
        OFFSET 11.9445 1.14441e-005 0
        CHANNELS 6 Xposition Yposition Zposition Zrotation Xrotation Yrotation
        JOINT Spine3
        {
          OFFSET 14.7254 4.19617e-005 0
          CHANNELS 6 Xposition Yposition Zposition Zrotation Xrotation Yrotation
          JOINT Spine4
          {
            OFFSET 10.9679 0 0
            CHANNELS 6 Xposition Yposition Zposition Zrotation Xrotation Yrotation
            JOINT RightShoulder
            {
              OFFSET 2.46616 -1.6653 3.69651
              CHANNELS 6 Xposition Yposition Zposition Zrotation Xrotation Yrotation
              JOINT RightArm
              {
                OFFSET 13.0012 0 0
                CHANNELS 6 Xposition Yposition Zposition Zrotation Xrotation Yrotation
                JOINT RightForeArm
                {
                  OFFSET 28.7848 1.52588e-005 0
                  CHANNELS 6 Xposition Yposition Zposition Zrotation Xrotation Yrotation
                  JOINT RightHand
                  {
                    OFFSET 26.5688 1.52588e-005 0
                    CHANNELS 6 Xposition Yposition Zposition Zrotation Xrotation Yrotation
                    JOINT RightHandMiddle1
                    {
                      OFFSET 8.03675 -0.886581 0.727868
                      CHANNELS 6 Xposition Yposition Zposition Zrotation Xrotation Yrotation
                      JOINT RightHandMiddle2
                      {
                        OFFSET 2.78833 0 0
                        CHANNELS 6 Xposition Yposition Zposition Zrotation Xrotation Yrotation
                        JOINT RightHandMiddle3
                        {
                          OFFSET 2.41155 0 0
                          CHANNELS 6 Xposition Yposition Zposition Zrotation Xrotation Yrotation
                          End Site
                          {
                            OFFSET 0 0 0
                          }
                        }
                      }
                    }
                    JOINT RightHandRing1
                    {
                      OFFSET 7.97966 -0.886765 -1.00486
                      CHANNELS 6 Xposition Yposition Zposition Zrotation Xrotation Yrotation
                      JOINT RightHandRing2
                      {
                        OFFSET 2.86368 0 0
                        CHANNELS 6 Xposition Yposition Zposition Zrotation Xrotation Yrotation
                        JOINT RightHandRing3
                        {
                          OFFSET 2.11079 0 0
                          CHANNELS 6 Xposition Yposition Zposition Zrotation Xrotation Yrotation
                          End Site
                          {
                            OFFSET 0 0 0
                          }
                        }
                      }
                    }
                    JOINT RightHandPinky1
                    {
                      OFFSET 8.03707 -0.887528 -2.60696
                      CHANNELS 6 Xposition Yposition Zposition Zrotation Xrotation Yrotation
                      JOINT RightHandPinky2
                      {
                        OFFSET 1.84628 0 0
                        CHANNELS 6 Xposition Yposition Zposition Zrotation Xrotation Yrotation
                        JOINT RightHandPinky3
                        {
                          OFFSET 1.88434 0 0
                          CHANNELS 6 Xposition Yposition Zposition Zrotation Xrotation Yrotation
                          End Site
                          {
                            OFFSET 0 0 0
                          }
                        }
                      }
                    }
                    JOINT RightHandIndex1
                    {
                      OFFSET 7.92262 -0.885498 2.31175
                      CHANNELS 6 Xposition Yposition Zposition Zrotation Xrotation Yrotation
                      JOINT RightHandIndex2
                      {
                        OFFSET 2.63761 0 0
                        CHANNELS 6 Xposition Yposition Zposition Zrotation Xrotation Yrotation
                        JOINT RightHandIndex3
                        {
                          OFFSET 2.16656 0 0
                          CHANNELS 6 Xposition Yposition Zposition Zrotation Xrotation Yrotation
                          End Site
                          {
                            OFFSET 0 0 0
                          }
                        }
                      }
                    }
                    JOINT RightHandThumb1
                    {
                      OFFSET 3.4769 0.0597992 2.88789
                      CHANNELS 6 Xposition Yposition Zposition Zrotation Xrotation Yrotation
                      JOINT RightHandThumb2
                      {
                        OFFSET 2.77686 9.72748e-005 -1.52588e-005
                        CHANNELS 6 Xposition Yposition Zposition Zrotation Xrotation Yrotation
                        JOINT RightHandThumb3
                        {
                          OFFSET 2.42058 -9.15528e-005 0
                          CHANNELS 6 Xposition Yposition Zposition Zrotation Xrotation Yrotation
                          End Site
                          {
                            OFFSET 0 0 0
                          }
                        }
                      }
                    }
                  }
                }
              }
            }
            JOINT LeftShoulder
            {
              OFFSET 2.38034 -1.29275 -3.7523
              CHANNELS 6 Xposition Yposition Zposition Zrotation Xrotation Yrotation
              JOINT LeftArm
              {
                OFFSET 16.3182 6.10352e-005 0
                CHANNELS 6 Xposition Yposition Zposition Zrotation Xrotation Yrotation
                JOINT LeftForeArm
                {
                  OFFSET 27.0901 0 0
                  CHANNELS 6 Xposition Yposition Zposition Zrotation Xrotation Yrotation
                  JOINT LeftHand
                  {
                    OFFSET 24.5451 1.52588e-005 0
                    CHANNELS 6 Xposition Yposition Zposition Zrotation Xrotation Yrotation
                    JOINT LeftHandMiddle1
                    {
                      OFFSET 9.21802 0.665817 0.545532
                      CHANNELS 6 Xposition Yposition Zposition Zrotation Xrotation Yrotation
                      JOINT LeftHandMiddle2
                      {
                        OFFSET 2.66255 0 0
                        CHANNELS 6 Xposition Yposition Zposition Zrotation Xrotation Yrotation
                        JOINT LeftHandMiddle3
                        {
                          OFFSET 2.2804 0 0
                          CHANNELS 6 Xposition Yposition Zposition Zrotation Xrotation Yrotation
                          End Site
                          {
                            OFFSET 0 0 0
                          }
                        }
                      }
                    }
                    JOINT LeftHandRing1
                    {
                      OFFSET 9.24775 0.665192 -1.1267
                      CHANNELS 6 Xposition Yposition Zposition Zrotation Xrotation Yrotation
                      JOINT LeftHandRing2
                      {
                        OFFSET 2.47041 0 -1.52588e-005
                        CHANNELS 6 Xposition Yposition Zposition Zrotation Xrotation Yrotation
                        JOINT LeftHandRing3
                        {
                          OFFSET 2.2054 0 0
                          CHANNELS 6 Xposition Yposition Zposition Zrotation Xrotation Yrotation
                          End Site
                          {
                            OFFSET 0 0 0
                          }
                        }
                      }
                    }
                    JOINT LeftHandPinky1
                    {
                      OFFSET 9.35384 0.66301 -2.72332
                      CHANNELS 6 Xposition Yposition Zposition Zrotation Xrotation Yrotation
                      JOINT LeftHandPinky2
                      {
                        OFFSET 1.63407 0 0
                        CHANNELS 6 Xposition Yposition Zposition Zrotation Xrotation Yrotation
                        JOINT LeftHandPinky3
                        {
                          OFFSET 1.71176 0 0
                          CHANNELS 6 Xposition Yposition Zposition Zrotation Xrotation Yrotation
                          End Site
                          {
                            OFFSET 0 0 0
                          }
                        }
                      }
                    }
                    JOINT LeftHandIndex1
                    {
                      OFFSET 8.73161 0.675903 2.06801
                      CHANNELS 6 Xposition Yposition Zposition Zrotation Xrotation Yrotation
                      JOINT LeftHandIndex2
                      {
                        OFFSET 2.66689 0 0
                        CHANNELS 6 Xposition Yposition Zposition Zrotation Xrotation Yrotation
                        JOINT LeftHandIndex3
                        {
                          OFFSET 2.12946 0 1.52588e-005
                          CHANNELS 6 Xposition Yposition Zposition Zrotation Xrotation Yrotation
                          End Site
                          {
                            OFFSET 0 0 0
                          }
                        }
                      }
                    }
                    JOINT LeftHandThumb1
                    {
                      OFFSET 4.96735 -0.62265 3.39586
                      CHANNELS 6 Xposition Yposition Zposition Zrotation Xrotation Yrotation
                      JOINT LeftHandThumb2
                      {
                        OFFSET 2.15386 1.52588e-005 0
                        CHANNELS 6 Xposition Yposition Zposition Zrotation Xrotation Yrotation
                        JOINT LeftHandThumb3
                        {
                          OFFSET 2.19511 -3.43323e-005 1.52588e-005
                          CHANNELS 6 Xposition Yposition Zposition Zrotation Xrotation Yrotation
                          End Site
                          {
                            OFFSET 0 0 0
                          }
                        }
                      }
                    }
                  }
                }
              }
            }
            JOINT Neck
            {
              OFFSET 5.0226 -0.0266342 0
              CHANNELS 6 Xposition Yposition Zposition Zrotation Xrotation Yrotation
              JOINT Head
              {
                OFFSET 6.69364 2.86102e-005 0
                CHANNELS 6 Xposition Yposition Zposition Zrotation Xrotation Yrotation
                End Site
                {
                  OFFSET 0 0 0
                }
              }
            }
          }
        }
      }
    }
  }
}
MOTION
Frames:	4
Frame Time:	0.0333333
-26.6464 96.1632 -132.437 -57.4019 -23.5465 -74.8114 8.64259 1.95398 -2.38835 -172.086 18.2008 109.561 43.7702 7.03335e-006 0 -3.12603 -4.84978 6.78175 40.6238 1.43051e-006 9.53674e-007 -4.95482 2.47303 1.05436 12.7242 2.38419e-006 9.53674e-007 28.7808 5.85017e-006 9.49327e-006 -8.2249 1.95398 -2.59336 178.025 54.2685 94.2917 43.5653 7.27177e-006 0 -37.4031 -27.9975 -1.98923 40.6238 2.38419e-006 9.53674e-007 56.9472 -15.5257 -9.8041 12.7242 -4.76837e-007 0 28.7808 1.28587e-005 2.52732e-005 0.165834 0.87714 6.61349 -2.41866 9.64773 -89.6623 7.38963 1.71661e-005 -9.72809e-008 7.84583 -5.58884 4.66212 11.9445 1.14441e-005 6.65395e-008 -3.82231 -5.37849 4.90348 14.7254 4.19617e-005 8.195e-008 -26.4254 -6.73045 2.76365 10.9679 -9.53674e-006 5.82672e-008 -6.41274 -6.73043 2.76367 2.46616 -1.6653 3.69651 106.432 -38.4694 -74.3034 13.0012 0 7.10543e-015 64.5219 2.31387 -14.2527 28.7848 1.52588e-005 -1.19209e-007 3.67596 -0.684449 -14.054 26.5688 1.52588e-005 4.76837e-007 -5.37983 -0.320002 -0.0162416 8.03675 -0.886581 0.727868 -89.4039 88.9709 89.0936 2.78833 2.38419e-007 0 -0.0604872 7.38885e-006 -6.00701e-007 2.41155 -1.42109e-014 -2.84217e-014 -0.0639216 4.49542e-006 -7.75987e-007 7.97966 -0.886765 -1.00486 -89.3952 88.9811 89.085 2.86368 0 0 -1.15742 -7.78847e-006 -3.11614e-007 2.11079 0 0 2.576 -1.10766e-007 -5.91114e-007 8.03707 -0.887528 -2.60696 -88.8572 89.3579 88.547 1.84628 -3.55271e-015 -2.84217e-014 -1.14578 -2.03913e-006 1.20509e-008 1.88434 0 0 1.14577 2.27976e-006 -3.86331e-007 7.92262 -0.885498 2.31175 -89.423 88.9487 89.1127 2.63761 4.76837e-007 -5.68434e-014 0.409287 1.30762e-005 0.000493759 2.16656 -2.38419e-007 -2.84217e-014 -0.636601 -1.19723e-006 -4.40355e-007 3.4769 0.0597992 2.88789 104.364 40.5023 -88.8246 2.77686 9.72748e-005 -1.52588e-005 -7.66903 0.186174 -1.35044 2.42058 -9.15528e-005 0 -11.2634 -3.66591e-006 7.15972e-005 2.38034 -1.29275 -3.7523 -88.1401 -27.829 76.2037 16.3182 6.10352e-005 1.19209e-007 -44.9742 -10.4903 -41.7061 27.0901 0 3.55271e-015 33.3998 78.0535 -22.6695 24.5451 1.52588e-005 0 10.1481 1.74969 12.2913 9.21802 0.665817 0.545532 -91.1873 -87.8289 -89.9988 2.66255 1.42109e-014 0 3.40888 -5.03281e-006 0.00314027 2.2804 -1.42109e-014 3.55271e-015 -0.95486 7.23609e-006 1.56598e-007 9.24775 0.665192 -1.1267 -91.1871 -89.4015 -89.9985 2.47041 -4.76837e-007 -1.52588e-005 2.85636 -3.25746e-006 0.00277658 2.2054 1.42109e-014 3.55271e-015 -3.16844 3.79124e-006 1.13797e-007 9.35384 0.66301 -2.72332 88.8084 -89.7171 89.9969 1.63407 -4.76837e-007 -3.55271e-015 2.54481 6.53619e-006 0.00240266 1.71176 -1.42109e-014 0 -2.54482 -1.10601e-005 -9.60055e-007 8.73161 0.675903 2.06801 -91.1883 -86.1973 -89.9998 2.66689 -9.53674e-007 -7.10543e-015 6.13104 6.76994e-006 0.00628628 2.12946 1.04308e-007 1.52588e-005 -2.04542 -8.09014e-006 -2.92422e-007 4.96735 -0.62265 3.39586 -101.949 -40.7242 -90.0694 2.15386 1.52588e-005 0 10.0172 -8.04142e-006 -7.77535e-006 2.19511 -3.43323e-005 1.52588e-005 -2.66976 1.18472e-005 2.6027e-006 5.0226 -0.0266342 -9.09495e-013 11.1782 11.821 -22.9226 6.69364 2.86102e-005 -1.09447e-007 -29.4278 4.49132 49.9334 
-27.1533 97.1657 -131.926 -59.1644 -24.9595 -76.1172 8.64259 1.95398 -2.38835 -172.587 17.6087 107.825 43.7702 7.03335e-006 0 -2.76944 -7.98796 6.7168 40.6238 1.43051e-006 9.53674e-007 -1.19827 4.04897 4.08403 12.7242 2.38419e-006 9.53674e-007 28.7808 5.85017e-006 9.49327e-006 -8.2249 1.95398 -2.59336 178.686 50.0574 92.6161 43.5653 7.27177e-006 0 -33.9909 -27.7402 -1.9099 40.6238 2.38419e-006 9.53674e-007 56.1776 -15.5087 -9.93031 12.7242 -4.76837e-007 -1.42109e-014 28.7808 1.28587e-005 2.52732e-005 0.165834 0.87714 6.61349 -2.67035 9.55452 -89.4135 7.38963 1.71661e-005 -9.72809e-008 8.00793 -5.75764 4.44961 11.9445 1.14441e-005 6.65395e-008 -3.65875 -5.55645 4.69872 14.7254 4.19617e-005 8.195e-008 -26.2723 -6.82758 2.50934 10.9679 -9.53674e-006 5.82672e-008 -6.25969 -6.82757 2.50934 2.46616 -1.6653 3.69651 105.445 -39.3455 -76.1573 13.0012 0 1.42109e-014 63.687 3.88465 -14.5128 28.7848 1.52588e-005 -1.19209e-007 2.45754 -0.468392 -13.2191 26.5688 1.52588e-005 4.76837e-007 -5.37983 -0.320002 -0.0162416 8.03675 -0.886581 0.727868 -89.4039 88.9709 89.0936 2.78833 2.38419e-007 2.84217e-014 -0.0604872 7.38885e-006 -6.00701e-007 2.41155 1.42109e-014 2.84217e-014 -0.0639216 4.49542e-006 -7.75987e-007 7.97966 -0.886765 -1.00486 -89.3952 88.9811 89.085 2.86368 -7.10543e-015 0 -1.15742 -7.78847e-006 -3.11614e-007 2.11079 0 -2.84217e-014 2.576 -1.10766e-007 -5.91114e-007 8.03707 -0.887528 -2.60696 -88.8572 89.3579 88.547 1.84628 0 0 -1.14578 -2.03913e-006 1.20509e-008 1.88434 7.10543e-015 0 1.14577 2.27976e-006 -3.86331e-007 7.92262 -0.885498 2.31175 -89.423 88.9487 89.1127 2.63761 4.76837e-007 0 0.409287 1.30762e-005 0.000493759 2.16656 -2.38419e-007 0 -0.636601 -1.19723e-006 -4.40355e-007 3.4769 0.0597992 2.88789 104.364 40.5023 -88.8246 2.77686 9.72748e-005 -1.52588e-005 -7.66903 0.186174 -1.35044 2.42058 -9.15528e-005 2.84217e-014 -11.2634 -3.66591e-006 7.15972e-005 2.38034 -1.29275 -3.7523 -87.0693 -25.8702 77.754 16.3182 6.10352e-005 1.19209e-007 -46.6719 -4.74207 -42.5706 27.0901 0 -7.10543e-015 34.0786 78.4126 -25.3214 24.5451 1.52588e-005 0 9.19159 1.54629 11.6909 9.21802 0.665817 0.545532 -91.1873 -87.8289 -89.9988 2.66255 -2.84217e-014 -7.10543e-015 3.40888 -5.03281e-006 0.00314027 2.2804 0 0 -0.95486 7.23609e-006 1.56598e-007 9.24775 0.665192 -1.1267 -91.1871 -89.4015 -89.9985 2.47041 -4.76837e-007 -1.52588e-005 2.85636 -3.25746e-006 0.00277658 2.2054 0 0 -3.16844 3.79124e-006 1.13797e-007 9.35384 0.66301 -2.72332 88.8084 -89.7171 89.9969 1.63407 -4.76837e-007 0 2.54481 6.53619e-006 0.00240266 1.71176 0 0 -2.54482 -1.10601e-005 -9.60055e-007 8.73161 0.675903 2.06801 -91.1883 -86.1973 -89.9998 2.66689 -9.53674e-007 0 6.13104 6.76994e-006 0.00628628 2.12946 1.04308e-007 1.52588e-005 -2.04542 -8.09014e-006 -2.92422e-007 4.96735 -0.62265 3.39586 -101.949 -40.7242 -90.0694 2.15386 1.52588e-005 -3.55271e-015 10.0172 -8.04142e-006 -7.77535e-006 2.19511 -3.43323e-005 1.52588e-005 -2.66976 1.18472e-005 2.6027e-006 5.0226 -0.0266342 -9.09495e-013 7.18844 11.71 -20.0312 6.69364 2.86102e-005 -1.09447e-007 -27.0769 5.08641 46.0662 
-27.6044 98.0394 -131.404 -60.5736 -26.8095 -77.1425 8.64259 1.95398 -2.38835 -173.308 17.6256 106.051 43.7702 7.03335e-006 0 -2.08689 -14.8524 6.27972 40.6238 1.43051e-006 9.53674e-007 1.26486 5.84639 7.18986 12.7242 2.38419e-006 9.53674e-007 28.7808 5.85017e-006 9.49327e-006 -8.2249 1.95398 -2.59336 179.078 46.2807 91.0704 43.5653 7.27177e-006 0 -31.0102 -26.6615 -1.7558 40.6238 2.38419e-006 9.53674e-007 55.6885 -15.5505 -10.0606 12.7242 -4.76837e-007 2.84217e-014 28.7808 1.28587e-005 2.52732e-005 0.165834 0.87714 6.61349 -2.80684 9.36128 -89.187 7.38963 1.71661e-005 -9.72809e-008 8.35098 -5.7216 4.11735 11.9445 1.14441e-005 6.65395e-008 -3.31469 -5.53504 4.36528 14.7254 4.19617e-005 8.195e-008 -25.9321 -6.69346 2.2029 10.9679 -9.53674e-006 5.82672e-008 -5.91948 -6.69346 2.20288 2.46616 -1.6653 3.69651 104.047 -40.0378 -78.6863 13.0012 0 0 62.5299 6.13877 -13.7968 28.7848 1.52588e-005 -1.19209e-007 1.51774 -0.355209 -12.6704 26.5688 1.52588e-005 4.76837e-007 -5.37983 -0.320002 -0.0162416 8.03675 -0.886581 0.727868 -89.4039 88.9709 89.0936 2.78833 2.38419e-007 0 -0.0604872 7.38885e-006 -6.00701e-007 2.41155 0 -5.68434e-014 -0.0639216 4.49542e-006 -7.75987e-007 7.97966 -0.886765 -1.00486 -89.3952 88.9811 89.085 2.86368 -3.55271e-015 0 -1.15742 -7.78847e-006 -3.11614e-007 2.11079 3.55272e-015 -2.84217e-014 2.576 -1.10766e-007 -5.91114e-007 8.03707 -0.887528 -2.60696 -88.8572 89.3579 88.547 1.84628 0 0 -1.14578 -2.03913e-006 1.20509e-008 1.88434 3.55271e-015 0 1.14577 2.27976e-006 -3.86331e-007 7.92262 -0.885498 2.31175 -89.423 88.9487 89.1127 2.63761 4.76837e-007 0 0.409287 1.30762e-005 0.000493759 2.16656 -2.38419e-007 0 -0.636601 -1.19723e-006 -4.40355e-007 3.4769 0.0597992 2.88789 104.364 40.5023 -88.8246 2.77686 9.72748e-005 -1.52588e-005 -7.66903 0.186174 -1.35044 2.42058 -9.15528e-005 0 -11.2634 -3.66591e-006 7.15972e-005 2.38034 -1.29275 -3.7523 -85.2483 -23.433 80.863 16.3182 6.10352e-005 1.19209e-007 -49.487 3.45944 -45.2449 27.0901 0 0 69.435 84.6344 -61.4758 24.5451 1.52588e-005 2.84217e-014 7.32583 1.26877 11.6729 9.21802 0.665817 0.545532 -91.1873 -87.8289 -89.9988 2.66255 0 0 3.40888 -5.03281e-006 0.00314027 2.2804 0 -1.42109e-014 -0.95486 7.23609e-006 1.56598e-007 9.24775 0.665192 -1.1267 -91.1871 -89.4015 -89.9985 2.47041 -4.76837e-007 -1.52588e-005 2.85636 -3.25746e-006 0.00277658 2.2054 -1.42109e-014 -7.10543e-015 -3.16844 3.79124e-006 1.13797e-007 9.35384 0.66301 -2.72332 88.8084 -89.7171 89.9969 1.63407 -4.76837e-007 0 2.54481 6.53619e-006 0.00240266 1.71176 0 -7.10543e-015 -2.54482 -1.10601e-005 -9.60055e-007 8.73161 0.675903 2.06801 -91.1883 -86.1973 -89.9998 2.66689 -9.53674e-007 -7.10543e-015 6.13104 6.76994e-006 0.00628628 2.12946 1.04308e-007 1.52588e-005 -2.04542 -8.09014e-006 -2.92422e-007 4.96735 -0.62265 3.39586 -101.949 -40.7242 -90.0694 2.15386 1.52588e-005 -7.10543e-015 10.0172 -8.04142e-006 -7.77535e-006 2.19511 -3.43323e-005 1.52588e-005 -2.66976 1.18472e-005 2.6027e-006 5.0226 -0.0266342 -9.37916e-013 1.63667 11.0898 -16.71 6.69364 2.86102e-005 -1.09447e-007 -24.3163 5.16737 41.6165 
-28.0485 98.7811 -130.862 -61.6868 -28.907 -78.0048 8.64259 1.95398 -2.38835 -174.065 17.7648 104.048 43.7702 7.03335e-006 0 -1.72033 -20.6072 5.69828 40.6238 1.43051e-006 9.53674e-007 5.6758 7.86575 10.0495 12.7242 2.38419e-006 9.53674e-007 28.7808 5.85017e-006 9.49327e-006 -8.2249 1.95398 -2.59336 179.276 42.7945 89.5861 43.5653 7.27177e-006 2.84217e-014 -28.2056 -25.5795 -1.60848 40.6238 2.38419e-006 9.53674e-007 55.2493 -15.8948 -10.3927 12.7242 -4.76837e-007 0 28.7808 1.28587e-005 2.52732e-005 0.165834 0.87714 6.61349 -2.73265 9.1167 -89.1741 7.38963 1.71661e-005 -9.72809e-008 8.78539 -5.39347 3.45314 11.9445 1.14441e-005 6.65396e-008 -2.87958 -5.23636 3.68737 14.7254 4.19617e-005 8.195e-008 -25.4933 -6.18111 1.66829 10.9679 -9.53674e-006 5.82672e-008 -5.48068 -6.18112 1.66829 2.46616 -1.6653 3.69651 103.681 -39.6072 -79.3216 13.0012 0 1.06581e-014 61.287 8.40406 -13.0985 28.7848 1.52588e-005 -1.19209e-007 0.251891 -0.153168 -11.5099 26.5688 1.52588e-005 4.76837e-007 -5.37983 -0.320002 -0.0162416 8.03675 -0.886581 0.727868 -89.4039 88.9709 89.0936 2.78833 2.38419e-007 0 -0.0604872 7.38885e-006 -6.00701e-007 2.41155 3.55271e-015 0 -0.0639216 4.49542e-006 -7.75987e-007 7.97966 -0.886765 -1.00486 -89.3952 88.9811 89.085 2.86368 3.55271e-015 2.84217e-014 -1.15742 -7.78847e-006 -3.11614e-007 2.11079 0 -2.84217e-014 2.576 -1.10766e-007 -5.91114e-007 8.03707 -0.887528 -2.60696 -88.8572 89.3579 88.547 1.84628 0 -2.84217e-014 -1.14578 -2.03913e-006 1.20509e-008 1.88434 0 0 1.14577 2.27976e-006 -3.86331e-007 7.92262 -0.885498 2.31175 -89.423 88.9487 89.1127 2.63761 4.76837e-007 0 0.409287 1.30762e-005 0.000493759 2.16656 -2.38419e-007 -2.84217e-014 -0.636601 -1.19723e-006 -4.40355e-007 3.4769 0.0597992 2.88789 104.364 40.5023 -88.8246 2.77686 9.72748e-005 -1.52588e-005 -7.66903 0.186174 -1.35044 2.42058 -9.15528e-005 0 -11.2634 -3.66591e-006 7.15972e-005 2.38034 -1.29275 -3.7523 -84.6843 -21.0377 81.456 16.3182 6.10352e-005 1.19209e-007 -50.9413 11.3182 -47.398 27.0901 0 1.42109e-014 117.336 84.3926 -110.248 24.5451 1.52588e-005 0 11.4134 0.888919 3.56628 9.21802 0.665817 0.545532 -91.1873 -87.8289 -89.9988 2.66255 1.42109e-014 0 3.40888 -5.03281e-006 0.00314027 2.2804 0 0 -0.95486 7.23609e-006 1.56598e-007 9.24775 0.665192 -1.1267 -91.1871 -89.4015 -89.9985 2.47041 -4.76837e-007 -1.52588e-005 2.85636 -3.25746e-006 0.00277658 2.2054 -1.42109e-014 0 -3.16844 3.79124e-006 1.13797e-007 9.35384 0.66301 -2.72332 88.8084 -89.7171 89.9969 1.63407 -4.76837e-007 1.42109e-014 2.54481 6.53619e-006 0.00240266 1.71176 0 -1.42109e-014 -2.54482 -1.10601e-005 -9.60055e-007 8.73161 0.675903 2.06801 -91.1883 -86.1973 -89.9998 2.66689 -9.53674e-007 0 6.13104 6.76994e-006 0.00628628 2.12946 1.04308e-007 1.52588e-005 -2.04542 -8.09014e-006 -2.92422e-007 4.96735 -0.62265 3.39586 -101.949 -40.7242 -90.0694 2.15386 1.52588e-005 0 10.0172 -8.04142e-006 -7.77535e-006 2.19511 -3.43323e-005 1.52588e-005 -2.66976 1.18472e-005 2.6027e-006 5.0226 -0.0266342 -9.09495e-013 -4.5277 9.94168 -12.6411 6.69364 2.86102e-005 -1.09447e-007 -21.0853 4.717 37.5852 
